<svg id="memory" enable-background="new 0 0 300 300" height="512" viewBox="0 0 300 300" width="512" xmlns="http://www.w3.org/2000/svg"><g><circle cx="122.805" cy="136" fill="#e5efef" r="86"/><g><path d="m259.195 164c0-12.394-8.718-23.454-20.348-26 6.154-4.736 10.186-11.365 10.186-19.73 0-14.304-11.596-25.9-25.901-25.9-4.77 0-9.181 1.38-13.019 3.629.143-1.034.316-2.06.316-3.134.001-12.629-10.236-22.865-22.864-22.865s-22.865 10.236-22.865 22.864 0 129.642 0 142.27 10.237 22.865 22.865 22.865 22.865-10.237 22.865-22.865c0-1.074-.173-2.1-.316-3.135 3.838 2.249 8.249 3.63 13.019 3.63 14.304 0 25.901-11.596 25.901-25.9 0-8.365-4.032-15.723-10.185-20.459 11.628-2.546 20.346-12.877 20.346-25.27z" fill="#9dc1e4"/><path d="m187.565 262c-14.813 0-26.865-12.052-26.865-26.865v-142.271c0-14.813 12.051-26.864 26.865-26.864 13.766 0 25.147 10.409 26.688 23.77 2.879-.932 5.848-1.4 8.88-1.4 16.487 0 29.9 13.413 29.9 29.9 0 6.822-2.299 12.994-6.711 18.151 10.08 5.001 16.873 15.681 16.873 27.579 0 11.57-6.818 21.997-16.931 26.903 4.357 5.281 6.769 11.868 6.769 18.826 0 16.487-13.413 29.9-29.9 29.9-3.032 0-6.001-.469-8.88-1.4-1.541 13.362-12.922 23.771-26.688 23.771zm0-188c-10.402 0-18.865 8.463-18.865 18.864v142.271c0 10.402 8.463 18.865 18.865 18.865 10.401 0 18.864-8.463 18.864-18.865 0-.631-.098-1.316-.211-2.111l-.067-.478c-.209-1.518.467-3.021 1.741-3.872 1.274-.852 2.921-.899 4.244-.125 3.488 2.045 7.188 3.081 10.996 3.081 12.076 0 21.9-9.824 21.9-21.9 0-6.77-3.144-13.071-8.625-17.289-1.232-.948-1.804-2.525-1.464-4.044.34-1.518 1.528-2.701 3.048-3.033 9.968-2.183 17.203-11.167 17.203-21.363 0-10.448-7.396-19.945-17.203-22.093-1.52-.332-2.708-1.516-3.048-3.033s.231-3.095 1.464-4.044c5.723-4.405 8.625-9.977 8.625-16.561 0-12.076-9.824-21.9-21.9-21.9-3.808 0-7.508 1.036-10.996 3.081-1.321.774-2.969.728-4.244-.125-1.274-.851-1.95-2.354-1.741-3.872l.067-.479c.113-.794.211-1.479.211-2.11 0-10.402-8.463-18.865-18.864-18.865z" fill="#4c241d"/></g><g><path d="m70.205 164c0-12.394 8.718-23.454 20.348-26-6.153-4.736-10.186-11.365-10.186-19.73 0-14.304 11.596-25.9 25.901-25.9 4.77 0 9.181 1.38 13.019 3.629-.143-1.034-.316-2.06-.316-3.134-.001-12.629 10.236-22.865 22.864-22.865s22.865 10.236 22.865 22.864 0 129.642 0 142.27-10.237 22.865-22.865 22.865-22.865-10.237-22.865-22.865c0-1.074.173-2.1.316-3.135-3.838 2.249-8.249 3.63-13.019 3.63-14.304 0-25.901-11.596-25.901-25.9 0-8.365 4.032-15.723 10.185-20.459-11.628-2.546-20.346-12.877-20.346-25.27z" fill="#ffded5"/><path d="m141.834 262c-13.766 0-25.147-10.409-26.688-23.771-2.879.932-5.848 1.4-8.88 1.4-16.487 0-29.9-13.413-29.9-29.9 0-6.958 2.411-13.544 6.769-18.826-10.112-4.906-16.93-15.333-16.93-26.903 0-11.898 6.793-22.578 16.873-27.579-4.412-5.157-6.711-11.329-6.711-18.151 0-16.487 13.413-29.9 29.9-29.9 3.032 0 6.001.469 8.88 1.4 1.54-13.36 12.922-23.77 26.688-23.77 14.813 0 26.865 12.051 26.865 26.864v142.271c0 14.813-12.052 26.865-26.866 26.865zm-22.548-34c.776 0 1.551.226 2.222.674 1.274.851 1.95 2.354 1.741 3.872l-.067.478c-.113.795-.211 1.48-.211 2.111 0 10.402 8.463 18.865 18.864 18.865 10.402 0 18.865-8.463 18.865-18.865v-142.271c0-10.401-8.463-18.864-18.866-18.864-10.401 0-18.864 8.463-18.864 18.864 0 .631.098 1.316.211 2.11l.067.479c.209 1.518-.467 3.021-1.741 3.872-1.275.852-2.923.897-4.244.125-3.488-2.045-7.188-3.081-10.996-3.081-12.076 0-21.9 9.824-21.9 21.9 0 6.584 2.902 12.155 8.625 16.561 1.232.949 1.804 2.526 1.464 4.044s-1.528 2.701-3.048 3.033c-9.808 2.148-17.203 11.645-17.203 22.093 0 10.196 7.235 19.181 17.203 21.363 1.52.332 2.708 1.516 3.048 3.033.34 1.519-.231 3.096-1.464 4.044-5.481 4.219-8.625 10.52-8.625 17.289 0 12.076 9.824 21.9 21.9 21.9 3.808 0 7.508-1.036 10.996-3.081.626-.365 1.324-.548 2.023-.548z" fill="#4c241d"/></g><g fill="#4c241d"><path d="m179.943 145.135c-2.209 0-4-1.791-4-4 0-10.61 8.633-19.243 19.243-19.243h5.081c6.199 0 11.243-5.044 11.243-11.243 0-2.209 1.791-4 4-4s4 1.791 4 4c0 10.61-8.633 19.243-19.243 19.243h-5.081c-6.199 0-11.243 5.044-11.243 11.243 0 2.209-1.791 4-4 4z"/><path d="m230.753 170.54h-2.54c-9.21 0-16.703-8.196-16.703-18.271s7.493-18.269 16.703-18.269h12.703c2.209 0 4 1.791 4 4s-1.791 4-4 4h-12.703c-4.799 0-8.703 4.606-8.703 10.27s3.904 10.271 8.703 10.271h2.54c2.209 0 4 1.791 4 4s-1.791 3.999-4 3.999z"/><path d="m195.186 221.351c-1.023 0-2.048-.391-2.828-1.172-1.562-1.562-1.562-4.095 0-5.656l9.017-9.016c3.26-3.26 5.055-7.595 5.055-12.205 0-3.419-1.002-6.729-2.898-9.574l-6.592-9.888c-1.226-1.838-.729-4.321 1.109-5.547 1.837-1.229 4.321-.729 5.547 1.109l6.592 9.888c2.775 4.163 4.242 9.008 4.242 14.012 0 6.747-2.627 13.091-7.398 17.861l-9.017 9.016c-.782.781-1.806 1.172-2.829 1.172z"/><path d="m188.805 202c-2.209 0-4-1.791-4-4 0-6.617-5.383-12-12-12h-4.8c-2.209 0-4-1.791-4-4s1.791-4 4-4h4.8c11.028 0 20 8.972 20 20 0 2.209-1.791 4-4 4z"/><path d="m149.667 145.135c-2.209 0-4-1.791-4-4 0-6.199-5.044-11.243-11.243-11.243h-5.081c-10.61 0-19.243-8.633-19.243-19.243 0-2.209 1.791-4 4-4s4 1.791 4 4c0 6.199 5.044 11.243 11.243 11.243h5.081c10.61 0 19.243 8.633 19.243 19.243 0 2.209-1.791 4-4 4z"/><path d="m101.397 170.54h-2.54c-2.209 0-4-1.791-4-4s1.791-4 4-4h2.54c4.799 0 8.703-4.607 8.703-10.271s-3.904-10.269-8.703-10.269h-12.702c-2.209 0-4-1.791-4-4s1.791-4 4-4h12.702c9.21 0 16.703 8.195 16.703 18.27s-7.493 18.27-16.703 18.27z"/><path d="m137.724 215.975c-5.229 0-10.315-1.624-14.651-4.729-4.068-2.913-7.153-6.927-8.922-11.608l-4.2-11.114c-.781-2.066.261-4.375 2.327-5.155 2.068-.785 4.375.26 5.155 2.327l4.201 11.115c1.209 3.198 3.316 5.94 6.097 7.932 3.748 2.685 8.32 3.748 12.865 2.995l12.581-2.081c2.172-.369 4.237 1.114 4.599 3.294.36 2.179-1.114 4.238-3.293 4.599l-12.581 2.081c-1.395.229-2.791.344-4.178.344z"/><path d="m144.005 178c-2.209 0-4-1.791-4-4 0-11.028 8.972-20 20-20h4.8c2.209 0 4 1.791 4 4s-1.791 4-4 4h-4.8c-6.617 0-12 5.383-12 12 0 2.209-1.791 4-4 4z"/><path d="m232.805 70c-1.023 0-2.048-.391-2.828-1.172-1.562-1.562-1.562-4.095 0-5.656l12-12c1.561-1.562 4.096-1.562 5.656 0 1.562 1.562 1.562 4.095 0 5.656l-12 12c-.78.781-1.804 1.172-2.828 1.172z"/><path d="m256.805 82h-16c-2.209 0-4-1.791-4-4s1.791-4 4-4h16c2.209 0 4 1.791 4 4s-1.791 4-4 4z"/><path d="m220.805 62c-2.209 0-4-1.791-4-4v-16c0-2.209 1.791-4 4-4s4 1.791 4 4v16c0 2.209-1.791 4-4 4z"/></g></g></svg>